<?xml version="1.0" encoding="UTF-8"?>
<svg xmlns="http://www.w3.org/2000/svg" xmlns:xlink="http://www.w3.org/1999/xlink" width="40px" height="33px" viewBox="0 0 40 33" version="1.1">
<g id="surface1">
<path style=" stroke:none;fill-rule:nonzero;fill:rgb(100%,6.666667%,32.941177%);fill-opacity:1;" d="M 35.796875 27.09375 C 37.257812 27.300781 38.710938 27.503906 38.9375 29.007812 C 39.550781 33 31.953125 31.515625 30.210938 30.648438 C 27.492188 29.285156 25.835938 26.175781 26.546875 23.101562 C 26.816406 21.914062 28.292969 18.839844 29.679688 15.945312 C 30.980469 13.230469 32.203125 10.675781 32.296875 9.980469 C 32.484375 8.507812 31.714844 8.386719 31.234375 8.359375 C 30.617188 8.328125 30.128906 8.636719 29.519531 9.570312 C 29.132812 10.160156 26.046875 16.402344 23.988281 20.574219 C 23.050781 22.46875 22.328125 23.933594 22.15625 24.257812 C 21.183594 26.128906 19.960938 26.578125 18.734375 26.507812 C 16.941406 26.414062 16.121094 25.433594 16.382812 23.671875 C 16.453125 23.199219 17.328125 21.019531 18.269531 18.664062 C 19.382812 15.875 20.601562 12.835938 20.710938 12.0625 C 20.835938 11.179688 20.664062 10.246094 19.808594 9.800781 C 18.945312 9.347656 17.9375 10.035156 17.632812 10.558594 C 17.429688 10.902344 16.054688 14.476562 14.601562 18.25 C 12.992188 22.40625 11.296875 26.800781 10.980469 27.382812 C 9.949219 29.300781 8.855469 29.914062 7.210938 29.996094 C 3.332031 30.183594 0.449219 26.921875 1.71875 22.933594 C 1.824219 22.597656 2.039062 21.875 2.332031 20.875 C 3.613281 16.492188 6.378906 7.03125 7.917969 4.234375 C 9.191406 1.925781 12.726562 0.175781 15.183594 1.261719 C 15.988281 1.613281 16.992188 2.101562 17.742188 2.472656 C 18.183594 2.6875 18.539062 2.859375 18.726562 2.945312 C 19.777344 3.425781 20.898438 2.359375 21.492188 1.78125 C 21.582031 1.699219 21.65625 1.628906 21.71875 1.574219 C 21.777344 1.519531 21.835938 1.46875 21.894531 1.410156 C 22.339844 1.011719 22.785156 0.621094 23.328125 0.382812 C 23.945312 0.109375 24.914062 0 25.660156 0.109375 C 26.414062 0.222656 26.859375 0.515625 27.136719 0.746094 C 27.601562 1.121094 27.914062 1.425781 28.308594 1.8125 L 28.554688 2.050781 C 29.273438 2.746094 29.804688 2.417969 30.195312 2.175781 L 30.296875 2.117188 L 30.316406 2.101562 C 30.984375 1.703125 31.523438 1.386719 33.523438 1.425781 C 35.59375 1.457031 37.976562 2.214844 38.472656 5.820312 C 38.738281 7.765625 37.226562 11.195312 35.664062 14.765625 C 34 18.539062 32.277344 22.46875 32.527344 24.925781 C 32.707031 26.65625 34.257812 26.875 35.796875 27.09375 Z M 35.796875 27.09375 "/>
</g>
</svg>
